<?xml version="1.0" encoding="UTF-8" standalone="no"?>
<svg
   xmlns:dc="http://purl.org/dc/elements/1.1/"
   xmlns:cc="http://creativecommons.org/ns#"
   xmlns:rdf="http://www.w3.org/1999/02/22-rdf-syntax-ns#"
   xmlns:svg="http://www.w3.org/2000/svg"
   xmlns="http://www.w3.org/2000/svg"
   viewBox="0 0 750 250"
   height="250"
   width="750"
   xml:space="preserve"
   version="1.1"
   id="svg3355"><metadata
     id="metadata3361"><rdf:RDF><cc:Work
         rdf:about=""><dc:format>image/svg+xml</dc:format><dc:type
           rdf:resource="http://purl.org/dc/dcmitype/StillImage" /><dc:title></dc:title></cc:Work></rdf:RDF></metadata><defs
     id="defs3359"><clipPath
       id="clipPath3369"
       clipPathUnits="userSpaceOnUse"><path
         id="path3371"
         d="M 0,200 600,200 600,0 0,0 0,200 Z" /></clipPath></defs><g
     transform="matrix(1.25,0,0,-1.25,0,250)"
     id="g3363"><g
       id="g3367"
       clip-path="url(#clipPath3369)"><g
         id="g3448"><g
           transform="translate(77.71,57.8945)"
           id="g3373"><path
             id="path3375"
             style="fill:#02888c;fill-opacity:1;fill-rule:nonzero;stroke:none"
             d="m 0,0 14.036,0 4.085,7.354 -14.156,0.005 -41.328,74.409 -6.651,0 c -0.623,0 -1.017,-0.669 -0.715,-1.215 L 0,0 Z" /></g><g
           transform="translate(70.8682,45.6055)"
           id="g3377"><path
             id="path3379"
             style="fill:#007074;fill-opacity:1;fill-rule:nonzero;stroke:none"
             d="m 0,0 14.036,0 4.085,7.354 -14.156,0.005 -41.328,74.409 -6.651,0 c -0.623,0 -1.017,-0.669 -0.715,-1.214 L 0,0 Z" /></g><g
           transform="translate(106.9009,85.1807)"
           id="g3381"><path
             id="path3383"
             style="fill:#08a2a7;fill-opacity:1;fill-rule:nonzero;stroke:none"
             d="m 0,0 -37.072,66.747 -29.272,0 c -0.624,0 -1.018,-0.669 -0.715,-1.215 l 44.74,-80.553 13.976,0 L 0,0 Z" /></g><g
           transform="translate(100.2422,151.9277)"
           id="g3385"><path
             id="path3387"
             style="fill:#08a2a7;fill-opacity:1;fill-rule:nonzero;stroke:none"
             d="m 0,0 42,0 c 0.769,0 1.26,-0.82 0.898,-1.499 L 21.001,-40.923 -0.905,-1.485 C -1.255,-0.808 -0.763,0 0,0" /></g><g
           transform="translate(195.022,90.0293)"
           id="g3389"><path
             id="path3391"
             style="fill:#3c3c3c;fill-opacity:1;fill-rule:nonzero;stroke:none"
             d="m 0,0 -15.262,44.397 -18.945,0 24.961,-71.295 18.492,0 24.953,71.295 -18.937,0 L 0,0 Z" /></g><path
           id="path3393"
           style="fill:#3c3c3c;fill-opacity:1;fill-rule:nonzero;stroke:none"
           d="m 238.579,63.131 17.378,0 0,71.296 -17.378,0 0,-71.296 z" /><path
           id="path3395"
           style="fill:#3c3c3c;fill-opacity:1;fill-rule:nonzero;stroke:none"
           d="m 488.336,63.131 17.378,0 0,71.296 -17.378,0 0,-71.296 z" /><g
           transform="translate(314.1074,91.2061)"
           id="g3397"><path
             id="path3399"
             style="fill:#3c3c3c;fill-opacity:1;fill-rule:nonzero;stroke:none"
             d="m 0,0 -26.067,43.221 -16.933,0 0,-71.296 16.933,0 0,43.221 L 0,-28.075 l 16.933,0 0,71.296 L 0,43.221 0,0 Z" /></g><g
           transform="translate(448.6777,102.0215)"
           id="g3401"><path
             id="path3403"
             style="fill:#3c3c3c;fill-opacity:1;fill-rule:nonzero;stroke:none"
             d="m 0,0 -8.912,0 0,16.904 8.912,0 c 4.799,0 8.688,-3.416 8.688,-8.215 C 8.688,3.89 4.799,0 0,0 m 26.067,9.803 c 0,12.428 -10.075,22.503 -22.503,22.503 l -29.409,0 0,-71.12 16.933,0 0,23.886 8.083,0 12.765,-23.886 19.161,0 -16.001,29.291 C 21.667,-5.594 26.067,1.59 26.067,9.803" /></g><g
           transform="translate(544.5459,77.7021)"
           id="g3405"><path
             id="path3407"
             style="fill:#3c3c3c;fill-opacity:1;fill-rule:nonzero;stroke:none"
             d="m 0,0 -7.776,0 10e-4,41.223 7.543,0 c 0,0 18.905,0.504 18.905,-19.048 C 18.673,2.623 5.105,0 0,0 m 4.449,56.625 -29.56,0 0,-71.123 29.56,0 c 7.833,0 32.005,5.668 32.005,37.339 0,31.672 -32.005,33.784 -32.005,33.784" /></g><g
           transform="translate(377.0986,87.2158)"
           id="g3409"><path
             id="path3411"
             style="fill:#3c3c3c;fill-opacity:1;fill-rule:nonzero;stroke:none"
             d="m 0,0 18.875,0 c 0,-1.072 -3.539,-9.514 -15.984,-9.514 -10.412,0 -19.28,10.332 -19.28,20.838 0,14.162 9.512,20.385 19.923,20.385 6.657,0 13.345,-1.563 18.133,-5.853 l 8.175,12.888 c -7.065,7.065 -16.579,9.576 -26.951,9.576 -20.806,0 -37.349,-16.481 -37.349,-36.818 0,-20.336 16.881,-36.822 37.033,-36.822 20.418,0 31.494,17.331 31.494,25.32 l 0,14.948 L 0,14.948 0,0 Z" /></g><path
           style="fill:#ffffff;stroke:none;stroke-width:1px;stroke-linecap:butt;stroke-linejoin:miter;stroke-opacity:1"
           d="m 217.00178,126.96522 c -8.41471,-24.05826 -15.38576,-43.985309 -15.49121,-44.282328 -0.15031,-0.423393 2.31756,-0.540035 11.42587,-0.540035 l 11.6176,0 9.48997,27.646333 c 5.21949,15.20548 9.59377,27.64788 9.72063,27.64977 0.12685,0.002 4.50113,-12.43741 9.72062,-27.6429 l 9.48997,-27.646329 11.55674,-0.0034 c 6.35621,-0.0019 11.55674,0.105193 11.55674,0.237962 0,0.132769 -6.93417,20.060044 -15.40925,44.282834 l -15.40926,44.04144 -11.48446,-5.1e-4 -11.48447,-5.2e-4 -15.29949,-43.74228 z"
           id="path3434"
           transform="matrix(0.8,0,0,-0.8,0,200)" /><path
           style="fill:#ffffff"
           d="m 298.61751,126.42569 0,-44.282833 10.58468,0 10.58468,0 0,44.282833 0,44.28284 -10.58468,0 -10.58468,0 0,-44.28284 z"
           id="path3436"
           transform="matrix(0.8,0,0,-0.8,0,200)" /><path
           style="fill:#ffffff"
           d="m 339.22811,126.41801 0,-44.290515 10.40219,0.115688 10.40219,0.115688 16.27552,26.971909 16.27552,26.9719 0.11125,-27.07991 0.11125,-27.079913 10.36542,0 10.36542,0 0,44.282833 0,44.28284 -10.47667,-0.011 -10.47667,-0.011 -15.76901,-26.18964 c -8.67296,-14.40431 -16.00585,-26.50153 -16.29531,-26.88271 -0.41554,-0.54721 -0.52918,4.96657 -0.54003,26.20066 l -0.0137,26.89373 -10.36867,0 -10.36866,0 0,-44.29052 z"
           id="path3438"
           transform="matrix(0.8,0,0,-0.8,0,200)" /><path
           style="fill:#ffffff"
           d="m 467.30254,171.83453 c -7.02101,-1.34273 -12.29605,-3.40462 -17.66715,-6.90568 -4.2864,-2.79402 -8.98483,-7.13513 -11.9369,-11.02909 -2.77954,-3.66639 -6.1246,-10.43456 -7.6,-15.37729 -1.06465,-3.56671 -1.16328,-4.53134 -1.19264,-11.66475 -0.0282,-6.85108 0.0872,-8.2135 0.9697,-11.44873 4.4678,-16.378923 16.84957,-28.726448 33.25558,-33.163584 3.85538,-1.042719 4.87185,-1.133825 12.61772,-1.130914 9.37342,0.0035 13.09296,0.599768 19.74532,3.165188 4.65248,1.794185 12.65675,7.0468 12.65675,8.305692 0,0.220986 -2.19471,3.866939 -4.87713,8.102118 l -4.87713,7.70032 -1.27926,-1.06833 c -2.00377,-1.67339 -7.87135,-4.27655 -11.43192,-5.07178 -14.60918,-3.262879 -27.22235,1.25503 -32.1211,11.50546 -5.21562,10.91349 -3.13846,23.44696 5.28327,31.87902 6.63447,6.6426 14.25098,8.77913 23.16727,6.49873 3.60026,-0.92079 6.21763,-2.25192 8.6814,-4.41514 1.69575,-1.48889 3.78317,-4.36132 4.24768,-5.84509 l 0.30432,-0.97206 -11.90987,0 -11.90988,0 0,-9.2886 0,-9.28859 21.16936,0 21.16935,0 0,10.06188 c 0,11.10536 -0.28199,12.99703 -2.63839,17.69888 -2.0191,4.02881 -4.65914,7.53328 -8.2171,10.9076 -5.47276,5.19029 -11.36774,8.49171 -18.16904,10.17535 -4.63542,1.14748 -13.21785,1.47689 -17.44021,0.66939 z"
           id="path3440"
           transform="matrix(0.8,0,0,-0.8,0,200)" /><path
           style="fill:#ffffff"
           d="m 528.88825,126.39586 0,-44.312668 20.62932,0.157057 c 20.12652,0.153229 20.70303,0.181212 23.65351,1.148111 9.21642,3.0203 16.34328,10.226845 19.06267,19.27581 0.93589,3.11423 1.06017,11.47387 0.21516,14.47293 -1.08819,3.86218 -3.82679,8.82314 -6.45243,11.68857 -2.01685,2.20103 -4.91306,4.62349 -6.45799,5.40161 -0.0621,0.0313 4.18449,7.91216 9.43698,17.51303 5.25249,9.60087 9.73306,17.79634 9.95683,18.21217 0.38295,0.71163 -0.28564,0.7554 -11.3811,0.74512 l -11.78795,-0.0109 -7.85434,-14.78601 -7.85435,-14.78602 -5.21449,-0.1213 -5.21449,-0.12131 0,14.91825 0,14.91826 -10.36867,0 -10.36866,0 0,-44.31267 z m 35.25872,-4.28071 c 7.86756,-2.33642 10.31878,-13.26071 4.12501,-18.38384 -2.482,-2.05297 -4.98036,-2.57924 -12.2444,-2.57924 l -6.402,0 0,10.80069 0,10.8007 6.18598,0 c 4.19885,0 6.87645,-0.20505 8.33541,-0.63831 z"
           id="path3442"
           transform="matrix(0.8,0,0,-0.8,0,200)" /><path
           style="fill:#ffffff"
           d="m 610.54147,126.42569 0,-44.282833 10.8007,0 10.80069,0 0,44.282833 0,44.28284 -10.80069,0 -10.8007,0 0,-44.28284 z"
           id="path3444"
           transform="matrix(0.8,0,0,-0.8,0,200)" /><path
           style="fill:#ffffff"
           d="m 649.42396,126.39846 0,-44.310077 19.98128,0.153946 19.98128,0.153946 4.10426,1.141018 c 14.77661,4.108017 24.8057,12.228312 29.56319,23.936547 3.64696,8.97523 3.82837,23.92977 0.4221,34.79501 -3.82641,12.20536 -12.62261,21.58627 -24.20406,25.81298 -6.8819,2.51158 -8.19473,2.6267 -29.95656,2.6267 l -19.89149,0 0,-44.31007 z m 36.64621,25.94009 c 4.51618,-1.06469 7.35421,-2.66194 10.67024,-6.00523 3.37538,-3.40313 4.93489,-6.2082 6.33447,-11.39372 1.22849,-4.55164 1.32941,-13.80963 0.1915,-17.56804 -2.30157,-7.60191 -6.71374,-12.13341 -14.38627,-14.77535 -3.03257,-1.04423 -4.15151,-1.18399 -10.83432,-1.35332 l -7.45247,-0.18882 0,25.97066 0,25.97066 6.37241,-0.006 c 4.1157,-0.004 7.33992,-0.23448 9.10444,-0.65046 l 0,1e-5 z"
           id="path3446"
           transform="matrix(0.8,0,0,-0.8,0,200)" /></g></g></g></svg>